# xmcd
# Copyright (C) 1995-1998 Ti Kan
#
# Track frame offsets:
#       150
#       20710
#       37347
#       54236
#       56318
#       75389
#       92213
#       113698
#       133738
#       136384
#       148382
#       164606
#       187355
#       208066
#       228256
#
# Disc length: 3256 seconds
#
# Revision: 0
# Processed by: cddbd v1.5.2PL0 Copyright (c) Steve Scherf et al.
# Submitted via: CD-Import v1.0
#
DISCID=e00cb60f
DTITLE=Ljiljana Petkovic Orchestra - Hinter Dem Spiegel
DYEAR=2009
DGENRE=
TTITLE0=Hinter Dem Spiegel
TTITLE1=Kotki Dwa
TTITLE2=Wenn Ich Mir Was Wünschen Dürfte
TTITLE3=Intro Zitronen Blau
TTITLE4=Zitronen Blau
TTITLE5=Abendwind
TTITLE6=Lied Vom Einsamen Mädchen
TTITLE7=Tango Noir
TTITLE8=Interlude Spieluhr
TTITLE9=Bhowanee
TTITLE10=Immer So Tun Als Ob
TTITLE11=Gesichter Der Nacht
TTITLE12=Rote Sonne
TTITLE13=Zauberland
TTITLE14=Das Ende Der Welt
EXTD=
EXTT0=
EXTT1=
EXTT2=
EXTT3=
EXTT4=
EXTT5=
EXTT6=
EXTT7=
EXTT8=
EXTT9=
EXTT10=
EXTT11=
EXTT12=
EXTT13=
EXTT14=
PLAYORDER=
